<?xml version="1.0" encoding="iso-8859-1"?>
<!-- Generator: Adobe Illustrator 19.0.0, SVG Export Plug-In . SVG Version: 6.00 Build 0)  -->
<svg version="1.1" id="Capa_1" xmlns="http://www.w3.org/2000/svg" xmlns:xlink="http://www.w3.org/1999/xlink" x="0px" y="0px"
	 viewBox="0 0 217.243 217.243" style="enable-background:new 0 0 217.243 217.243;" xml:space="preserve">
<path d="M217.144,69.331c-0.804-15.973-7.174-30.984-17.936-42.272C188.221,15.535,173.856,9.19,158.758,9.19
	c-21.959,0-37.959,12.409-46.554,19.076c-1.142,0.886-2.466,1.912-3.448,2.607c-0.778-0.593-1.758-1.386-2.613-2.079
	C98.284,22.431,81.932,9.19,58.489,9.19c-15.097,0-29.462,6.346-40.449,17.869C7.277,38.347,0.906,53.36,0.103,69.331
	c-0.798,15.912,3.023,29.753,12.393,44.878c7.257,11.717,26.627,34.521,47.104,55.453c10.459,10.691,20.121,19.773,27.939,26.264
	c12.949,10.749,18.12,12.127,21.179,12.127c7.798,0,24.318-12.893,49.104-38.321c20.298-20.824,39.597-43.657,46.932-55.526
	C211.059,104.002,218.166,89.68,217.144,69.331z"/>
<g>
</g>
<g>
</g>
<g>
</g>
<g>
</g>
<g>
</g>
<g>
</g>
<g>
</g>
<g>
</g>
<g>
</g>
<g>
</g>
<g>
</g>
<g>
</g>
<g>
</g>
<g>
</g>
<g>
</g>
</svg>
